<svg width="44" height="44" fill="none" xmlns="http://www.w3.org/2000/svg"><g clip-path="url(#a)"><path d="M39 39h-9.63L14.63 5H39v34z" fill="#FC3F1D"/><path d="M39 39h-9.63L14.63 5H39v34z" fill="#2B2B2B"/><path fill-rule="evenodd" clip-rule="evenodd" d="M33.71 19.33a4.1 4.1 0 0 0-2.2-2.17c.18-.8.24-1.46.26-1.9h-1.8a9.8 9.8 0 0 1-.2 1.41c-1.4-.2-2.98 0-4.5.54-.17-.98-.28-1.9-.34-2.7 5.41-.3 8.6-1.58 8.75-1.65L33 11.24c-.03 0-3.06 1.2-8.13 1.5 0-1.21-.04-1.2.02-1.61l-1.8-.02c-.04.34-.03.7-.02 1.7h-.17c-1.62 0-3.12-.12-3.48-.15l-.33 1.79c.53.04 2.15.13 3.6.13h.22l.23-.01c.07 1 .2 2.16.44 3.42-2.39 1.4-4.3 4.1-3.32 6.3.4.92 1.19 1.52 2.2 1.67.18.02.36.04.54.04 1.03 0 2.21-.41 3.34-1.11a10.8 10.8 0 0 0 1.39 1.7l1.24-1.29c-.02-.01-.54-.5-1.2-1.49a12.86 12.86 0 0 0 3.26-4.91c.4.23.8.57 1.02 1.09.72 1.75-.32 3.78-1.3 4.66l1.23 1.3c1.62-1.47 2.73-4.21 1.74-6.62zM22.73 24.2a.98.98 0 0 1-.83-.62c-.44-1.01.52-2.67 2.1-3.77.4 1.4.9 2.6 1.41 3.56-.96.6-1.95.94-2.68.83zm4.51-2.4-.4.42c-.44-.9-.88-1.98-1.2-3.26a8.31 8.31 0 0 1 3.65-.58 11.12 11.12 0 0 1-2.05 3.43z" fill="#fff"/><path d="M5 5h9.63l14.74 34H5V5z" fill="#FC3F1D"/><path d="M5 5h9.63l14.74 34H5V5z" fill="url(#b)" fill-opacity=".4"/><path fill-rule="evenodd" clip-rule="evenodd" d="M15.38 17.42 9.52 30.96h2.4l1.44-3.61h5.93l1.44 3.61h2.4l-5.86-13.54h-1.9zm.94 2.79 2.19 5.31h-4.37l2.18-5.31z" fill="#fff"/></g><defs><linearGradient id="b" x1="49.36" y1="1.11" x2="13.14" y2="32.31" gradientUnits="userSpaceOnUse"><stop stop-color="#fff"/><stop offset="1" stop-color="#fff" stop-opacity="0"/></linearGradient><clipPath id="a"><circle cx="22" cy="22" r="17"/></clipPath></defs></svg>